<?xml version="1.0" standalone="no"?><!DOCTYPE svg PUBLIC "-//W3C//DTD SVG 1.1//EN" "http://www.w3.org/Graphics/SVG/1.1/DTD/svg11.dtd"><svg t="1680231241748" class="icon" viewBox="0 0 1024 1024" version="1.1" xmlns="http://www.w3.org/2000/svg" p-id="2797" xmlns:xlink="http://www.w3.org/1999/xlink" width="128" height="128"><path d="M301.62206 602.947362l147.201573 130.527822c0.687662 1.059122 1.623987 2.558265 3.245927 3.996011 6.934946 6.120394 16.115026 9.494235 26.543539 9.494235l1.063215 0c9.865695 0 19.10922-3.373841 26.104541-9.556657 1.62501-1.500167 2.623757-2.998287 3.436262-4.432962l233.511311-263.297708c7.245008-6.434549 11.242042-15.114233 11.242042-24.358781 0-9.242502-3.997034-17.859763-11.242042-24.353664-14.116509-12.366655-37.409005-13.117762-52.895721 0.74906L478.11475 664.278195 353.770767 554.169425c-14.116509-12.428054-38.159088-12.428054-52.148707 0-7.30743 6.435573-11.304464 15.178701-11.304464 24.421202S294.315654 596.514859 301.62206 602.947362zM849.634252 92.703355c-11.865235-17.799388-31.849382-28.478612-53.209876-28.478612L225.353003 64.224744c-21.361517 0-41.345664 10.679223-53.210899 28.478612L64.042083 255.878738l0 639.621633c0 35.164894 28.791743 63.952544 63.952544 63.952544l767.31899 0c35.160801 0 63.952544-28.78765 63.952544-63.952544L959.266162 255.878738 849.634252 92.703355zM895.313617 895.500371 127.994628 895.500371 127.994628 319.830259l767.31899 0L895.313617 895.500371zM127.994628 255.878738l93.547583-127.289058 582.125127-0.500397 91.64628 127.789455L127.994628 255.878738z" p-id="2798"></path></svg>