<?xml version="1.0" standalone="no"?><!DOCTYPE svg PUBLIC "-//W3C//DTD SVG 1.1//EN" "http://www.w3.org/Graphics/SVG/1.1/DTD/svg11.dtd"><svg t="1679990034882" class="icon" viewBox="0 0 1058 1024" version="1.1" xmlns="http://www.w3.org/2000/svg" p-id="2149" xmlns:xlink="http://www.w3.org/1999/xlink" width="132.25" height="128"><path d="M1032.8 353.6L556 20.8c-3.2-3.2-7.2-7.2-13.6-10.4C528.8 3.2 508 7.2 498.4 24L16.8 361.6c-13.6 10.4-16.8 34.4-3.2 51.2s34.4 24 48 13.6l34.4-24v560c0 20.8 16.8 37.6 37.6 37.6s37.6-16.8 37.6-37.6V348l358.4-252.8 365.6 256v607.2c0 20.8 16.8 37.6 37.6 37.6s37.6-16.8 37.6-37.6V402.4l27.2 16.8c13.6 10.4 29.6-4.8 40-21.6 12.8-12.8 8.8-33.6-4.8-44z" p-id="2150"></path><path d="M624 697.6c0 20.8-13.6 34.4-34.4 34.4H419.2c-20.8 0-34.4-13.6-34.4-34.4V528c-3.2-20.8 10.4-34.4 31.2-34.4h146.4v-51.2h-160c-37.6 0-68 30.4-68 68v204.8c0 37.6 30.4 68 68 68h204.8c37.6 0 68-30.4 68-68v-72H624v54.4z" p-id="2151"></path><path d="M467.2 528l-37.6 40.8 112.8 109.6 16.8-16.8 180.8-174.4-44-41.6-153.6 150.4z" p-id="2152"></path></svg>